<svg stroke="#000000" fill="#49f3fc" stroke-width="4" id="Layer_1" enable-background="new 0 0 480.324 480.324" height="512" viewBox="0 0 480.324 480.324" width="512" xmlns="http://www.w3.org/2000/svg"><path d="m165 369.493c0 30.88-25.12 56-56 56-30.87 0-56-25.12-56-56s25.13-56 56-56c30.88 0 56 25.12 56 56zm206-56c-30.87 0-56 25.12-56 56s25.13 56 56 56c30.88 0 56-25.12 56-56s-25.12-56-56-56zm-77.967-64.001h50.033c12.052 0 23.313-5.336 30.941-14.65l22.049-31.979c2.903-4.21 1.174-10.035-3.566-11.956-28.458-11.533-62.576-20.032-100.599-19.283-4.771.094-8.412 4.304-7.797 9.036zm163.897-22.719c-9.155-6.647-20.698-14.234-34.298-21.613-3.605-1.956-8.105-.901-10.433 2.476l-25.199 36.548c-8.963 12.041-25.417 21.308-43.935 21.308-5.677 0-249.482 0-245.536 0-23.059 0-46.012 3.129-68.229 9.301-17.159 4.766-29.3 20.555-29.3 38.55v55.95c0 4.418 3.582 8 8 8h20.996c4.418 0 7.985-3.583 7.991-8.002.056-39.075 31.946-71.798 72.012-71.798 40.925 0 73.024 34.004 71.986 73.768-.118 4.507 3.479 8.232 7.988 8.232h102.053c4.509 0 8.105-3.725 7.988-8.232-1.032-39.714 31.007-73.768 71.986-73.768 40.75 0 72.986 33.817 71.993 73.681-.112 4.502 3.485 8.219 7.988 8.219h21.019c4.418 0 8-3.582 8-8v-99.32c0-17.88-8.62-34.81-23.07-45.3zm-180.032 22.719-8.834-68.025c-.582-4.48-4.752-7.59-9.212-6.873-47.703 7.673-90.703 29.182-126.329 60.937-5.482 4.886-2.002 13.961 5.341 13.961zm124.002-111.249c-9.442 9.442-2.676 25.61 10.6 25.61 8.33 0 15-6.736 15-15 0-13.427-16.25-19.96-25.6-10.61zm47.374-26.159c-20.323-20.323-53.215-20.324-73.539 0-3.125 3.124-3.125 8.189 0 11.314 3.124 3.124 8.189 3.124 11.313 0 14.07-14.07 36.84-14.071 50.912 0 1.562 1.562 3.609 2.343 5.657 2.343 7.063 0 10.712-8.602 5.657-13.657zm29.698-29.699c-36.737-36.736-96.197-36.74-132.936 0-3.125 3.124-3.125 8.189 0 11.314 3.124 3.124 8.189 3.124 11.313 0 30.484-30.484 79.822-30.486 110.309 0 1.562 1.562 3.609 2.343 5.657 2.343 7.064 0 10.711-8.603 5.657-13.657z"/></svg>
