<?xml version="1.0" encoding="UTF-8" standalone="no"?>
<svg
   xmlns:dc="http://purl.org/dc/elements/1.1/"
   xmlns:cc="http://creativecommons.org/ns#"
   xmlns:rdf="http://www.w3.org/1999/02/22-rdf-syntax-ns#"
   xmlns:svg="http://www.w3.org/2000/svg"
   xmlns="http://www.w3.org/2000/svg"
   xmlns:sodipodi="http://sodipodi.sourceforge.net/DTD/sodipodi-0.dtd"
   xmlns:inkscape="http://www.inkscape.org/namespaces/inkscape"
   stroke="#000000"
   fill="#49f3fc"
   stroke-width="4"
   id="Layer_1"
   enable-background="new 0 0 480.324 480.324"
   viewBox="0 0 480.324 480.324"
   height="512"
   width="512"
   version="1.1"
   sodipodi:docname="flipped_car.svg"
   inkscape:version="0.92.3 (2405546, 2018-03-11)">
  <metadata
     id="metadata9">
    <rdf:RDF>
      <cc:Work
         rdf:about="">
        <dc:format>image/svg+xml</dc:format>
        <dc:type
           rdf:resource="http://purl.org/dc/dcmitype/StillImage" />
      </cc:Work>
    </rdf:RDF>
  </metadata>
  <defs
     id="defs7" />
  <sodipodi:namedview
     pagecolor="#ffffff"
     bordercolor="#666666"
     borderopacity="1"
     objecttolerance="10"
     gridtolerance="10"
     guidetolerance="10"
     inkscape:pageopacity="0"
     inkscape:pageshadow="2"
     inkscape:window-width="1920"
     inkscape:window-height="992"
     id="namedview5"
     showgrid="false"
     inkscape:zoom="0.4609375"
     inkscape:cx="256"
     inkscape:cy="256"
     inkscape:window-x="0"
     inkscape:window-y="24"
     inkscape:window-maximized="1"
     inkscape:current-layer="Layer_1" />
  <path
     d="m 315.30837,369.493 c 0,30.88 25.12,56 56,56 30.87,0 56,-25.12 56,-56 0,-30.88 -25.13,-56 -56,-56 -30.88,0 -56,25.12 -56,56 z m -206,-56 c 30.87,0 56,25.12 56,56 0,30.88 -25.13,56 -56,56 -30.879999,0 -55.999999,-25.12 -55.999999,-56 0,-30.88 25.12,-56 55.999999,-56 z m 77.967,-64.001 h -50.033 c -12.052,0 -23.313,-5.336 -30.941,-14.65 L 84.252371,202.863 c -2.903,-4.21 -1.174,-10.035 3.566,-11.956 28.457999,-11.533 62.575999,-20.032 100.598999,-19.283 4.771,0.094 8.412,4.304 7.797,9.036 z M 23.378371,226.773 c 9.155,-6.647 20.698,-14.234 34.298,-21.613 3.605,-1.956 8.105,-0.901 10.433,2.476 l 25.199,36.548 c 8.962999,12.041 25.416999,21.308 43.934999,21.308 5.677,0 249.482,0 245.536,0 23.059,0 46.012,3.129 68.229,9.301 17.159,4.766 29.3,20.555 29.3,38.55 v 55.95 c 0,4.418 -3.582,8 -8,8 h -20.996 c -4.418,0 -7.985,-3.583 -7.991,-8.002 -0.056,-39.075 -31.946,-71.798 -72.012,-71.798 -40.925,0 -73.024,34.004 -71.986,73.768 0.118,4.507 -3.479,8.232 -7.988,8.232 h -102.053 c -4.509,0 -8.105,-3.725 -7.988,-8.232 1.032,-39.714 -31.007,-73.768 -71.986,-73.768 -40.749999,0 -72.985999,33.817 -71.992999,73.681 0.112,4.502 -3.485,8.219 -7.988,8.219 H 8.3083711 c -4.418,0 -8.00000002,-3.582 -8.00000002,-8 v -99.32 c 0,-17.88 8.62000002,-34.81 23.06999992,-45.3 z m 180.031999,22.719 8.834,-68.025 c 0.582,-4.48 4.752,-7.59 9.212,-6.873 47.703,7.673 90.703,29.182 126.329,60.937 5.482,4.886 2.002,13.961 -5.341,13.961 z M 79.408371,138.243 c 9.442,9.442 2.676,25.61 -10.6,25.61 -8.33,0 -15,-6.736 -15,-15 0,-13.427 16.25,-19.96 25.6,-10.61 z m -47.374,-26.159 c 20.323,-20.323 53.215,-20.324 73.538999,0 3.125,3.124 3.125,8.189 0,11.314 -3.124,3.124 -8.188999,3.124 -11.312999,0 -14.07,-14.07 -36.84,-14.071 -50.912,0 -1.562,1.562 -3.609,2.343 -5.657,2.343 -7.063,0 -10.712,-8.602 -5.657,-13.657 z M 2.3363711,82.385 c 36.7369999,-36.736 96.1969999,-36.74 132.9359989,0 3.125,3.124 3.125,8.189 0,11.314 -3.124,3.124 -8.189,3.124 -11.313,0 -30.483999,-30.484 -79.821999,-30.486 -110.308999,0 -1.562,1.562 -3.609,2.343 -5.6569999,2.343 -7.06400002,0 -10.711,-8.603 -5.657,-13.657 z"
     id="path2"
     inkscape:connector-curvature="0" />
</svg>
