<svg stroke="#000000" fill="#689bed" stroke-width="4" height="511pt" viewBox="-11 0 511 511.99951" width="511pt" xmlns="http://www.w3.org/2000/svg"><path d="m377.628906 169.832031c2.203125 1.140625 4.5625 1.679688 6.886719 1.679688 5.449219 0 10.707031-2.96875 13.378906-8.144531 12.300781-23.835938 18.804688-50.675782 18.804688-77.613282 0-26.933594-6.503907-53.773437-18.804688-77.609375-3.8125-7.378906-12.886719-10.277343-20.265625-6.464843-7.382812 3.808593-10.277344 12.882812-6.46875 20.265624 10.257813 19.867188 15.457032 41.335938 15.457032 63.808594 0 22.476563-5.199219 43.945313-15.457032 63.8125-3.808594 7.382813-.914062 16.457032 6.46875 20.265625zm0 0"/><path d="m109.148438 171.320312c2.316406 0 4.667968-.539062 6.871093-1.667968 7.386719-3.800782 10.292969-12.871094 6.496094-20.257813-10.195313-19.820312-15.363281-41.234375-15.363281-63.640625s5.167968-43.816406 15.363281-63.636718c3.796875-7.386719.890625-16.457032-6.496094-20.257813-7.390625-3.800781-16.457031-.890625-20.257812 6.496094-12.230469 23.78125-18.695313 50.542969-18.695313 77.398437 0 26.859375 6.464844 53.621094 18.695313 77.402344 2.667969 5.183594 7.929687 8.164062 13.386719 8.164062zm0 0"/><path d="m160.101562 150.265625c2.535157 0 5.105469-.644531 7.460938-1.992187 7.210938-4.128907 9.707031-13.320313 5.582031-20.527344-7.292969-12.734375-11.148437-27.257813-11.148437-41.992188 0-14.730468 3.851562-29.25 11.148437-41.988281 4.125-7.207031 1.628907-16.398437-5.582031-20.527344-7.207031-4.128906-16.398438-1.628906-20.527344 5.578125-9.894531 17.28125-15.125 36.96875-15.125 56.9375 0 19.972656 5.230469 39.660156 15.125 56.941406 2.777344 4.851563 7.851563 7.570313 13.066406 7.570313zm0 0"/><path d="m331.769531 85.753906c0 14.734375-3.851562 29.253906-11.148437 41.992188-4.125 7.207031-1.628906 16.398437 5.582031 20.527344 2.355469 1.351562 4.925781 1.992187 7.460937 1.992187 5.214844 0 10.289063-2.71875 13.066407-7.570313 9.894531-17.277343 15.125-36.96875 15.125-56.9375 0-19.972656-5.230469-39.660156-15.125-56.941406-4.128907-7.207031-13.320313-9.707031-20.527344-5.578125-7.210937 4.128907-9.707031 13.320313-5.582031 20.527344 7.296875 12.734375 11.148437 27.257813 11.148437 41.988281zm0 0"/><path d="m474.828125 481.914062h-61.304687l-25.597657-45.375c-2.667969-4.726562-7.671875-7.648437-13.101562-7.648437h-15.402344l-77.90625-284.546875c-.324219-1.1875-.789063-2.304688-1.367187-3.34375 18.707031-11.304688 31.242187-31.835938 31.242187-55.246094 0-35.566406-28.9375-64.503906-64.507813-64.503906-35.566406 0-64.503906 28.9375-64.503906 64.503906 0 23.410156 12.53125 43.941406 31.238282 55.246094-.578126 1.039062-1.042969 2.15625-1.367188 3.34375l-77.90625 284.546875h-15.402344c-5.429687 0-10.433594 2.921875-13.101562 7.648437l-25.597656 45.375h-64.699219c-8.308594 0-15.042969 6.734376-15.042969 15.042969 0 8.308594 6.734375 15.042969 15.042969 15.042969h459.285156c8.308594 0 15.042969-6.734375 15.042969-15.042969 0-8.308593-6.734375-15.042969-15.042969-15.042969zm-160.753906-104.722656-46.621094-48.949218 25.800781-27.089844zm-101.613281-291.4375c0-18.976562 15.441406-34.417968 34.421874-34.417968 18.980469 0 34.421876 15.441406 34.421876 34.417968 0 18.980469-15.441407 34.421875-34.421876 34.421875-18.980468 0-34.421874-15.441406-34.421874-34.421875zm59.121093 136.234375h-49.398437l16.050781-58.628906h17.296875zm-57.636719 30.082031h65.875l4.160157 15.199219-37.296875 39.160157-36.988282-38.832032zm-13.523437 49.40625 25.488281 26.765626-46.058594 48.355468zm46.261719 48.574219 75.082031 78.839844h-150.167969zm-131.902344 131.863281 12.941406-22.941406h238.316406l12.941407 22.941406zm0 0"/></svg>
